<svg xmlns="http://www.w3.org/2000/svg" viewBox="0 0 114.37 56.24"><defs><style>.cls-1{fill:#231f20;}</style></defs><g id="Layer_2" data-name="Layer 2"><g id="Layer_1-2" data-name="Layer 1"><path class="cls-1" d="M2.1,1.25l.71.1H25.52a24.88,24.88,0,0,1,2.16,1.89c.16,0,.6.47,1.32,1.39,1.12,1,1.69,1.63,1.69,2V23.86l-.81,1.49-1.19,1c0,.16-.39.55-1.18,1.18a6,6,0,0,0-.2,1.19,3,3,0,0,1,1.49,1.52l1.69,1.49v.1h-.21v.3l.41.47V50.46q-.54,2.4-1.89,2.4a4.14,4.14,0,0,1-2.1,2.3c-.13,0-.51.36-1.12,1.08H5l-.58-.1a1,1,0,0,1-.5.1H.81c-.36-.41-.6-.61-.71-.61L0,54.45c0-.07,0-.1.1-.1L0,53.84V41.1l.41-.41c-.27,0-.41-.1-.41-.3V32.24c0-.43.33-.83,1-1.21v-.11c-.65-.22-1-.58-1-1.08s0-.91.1-.91c-.07-2-.1-3.49-.1-4.46V3.14C0,2,.43,1.35,1.28,1.35,1.83,1.35,2.1,1.32,2.1,1.25ZM.3,46.17l.31.2.47-.1V45.8c0-.12-.09-.22-.27-.31H.71C.58,45.49.44,45.72.3,46.17Zm0,8.28v.2H.51v-.2ZM.51,9.8v.51h.3l.1-.51Zm.1-.67v.1h.2v-.1ZM.91,55l-.3.38.37.2a.78.78,0,0,1,.3-.1v-.17C1.28,55.15,1.16,55,.91,55Zm-.1-2.8v.2h.27v-.2Zm.1-13.86c0,.14.06.21.17.21v-.21Zm0,1.9v.2c0,.13.06.2.17.2v-.4Zm.07,1c0,.07,0,.1-.07.1,0,.27.24.41.58.41V41.5Q1.49,41.34,1,41.2Zm-.07,13h.17V54A.19.19,0,0,0,.91,54.25Zm.17-51v.11h.2a.19.19,0,0,0,.21-.21L1.28,3C1.15,3.06,1.08,3.13,1.08,3.24Zm0,45.83v.11c0,.13.09.2.2.2l.11-.2v-.31H1.28C1.15,48.89,1.08,49,1.08,49.07Zm0,1.19v.2h.1a.18.18,0,0,0,.21-.2Zm.1.71-.1.5a.18.18,0,0,0,.2.17h.11v-.47C1.39,51,1.32,51,1.18,51Zm-.1,2.29a.18.18,0,0,0,.2.17l.11-.17v-.2H1.28C1.15,53.08,1.08,53.15,1.08,53.26Zm.31-5.5v.1c.15,0,.36.17.6.5.09,0,.2-.1.31-.3L2,47.69a.82.82,0,0,0,.11-.31H1.89C1.55,47.54,1.39,47.67,1.39,47.76Zm.2-9V39a.18.18,0,0,0,.2-.2Zm.2-36.06v.2c.25.47.49.71.71.71l.1-.2a.18.18,0,0,1-.2-.21v-.6H2.3ZM2,49.28v.3H2.3v-.1a.18.18,0,0,0-.2-.2Zm.21,4.86v.31h.4a1,1,0,0,1,.1-.31ZM2.3,41.4v.1c0,.14.09.21.2.21h.31V41.4a.18.18,0,0,0-.21-.2H2.5C2.37,41.22,2.3,41.29,2.3,41.4Zm.1-2.3v.21c.14,0,.2-.07.2-.21Zm.41-20.82a.67.67,0,0,1-.21.41V19h.21c.18-.06.27-.27.27-.6l-.21-.11ZM2.7,38.6a.74.74,0,0,1,.11.3c.11,0,.16-.07.16-.2l-.16-.1Zm.11,1.89v.1H3v-.1Zm.06-.78c0,.09.1.19.31.31h.1v-.31a.18.18,0,0,0-.2-.2C2.94,39.53,2.87,39.6,2.87,39.71Zm0,7.78v.27h.21v-.07C3.08,47.55,3,47.49,2.87,47.49Zm0,3.78v.2H3v-.2Zm.61-6.08v.2h.1v-.2Zm0,1,.31.2H4v-.2a.18.18,0,0,0-.2-.21H3.68C3.55,46,3.48,46.05,3.48,46.17Zm.31,6.28.1.51v.41c.13,0,.33.12.61.37l.2-.1-.1-.48.1-.5A4,4,0,0,0,3.79,52.45Zm.1-3.68v.1a2.31,2.31,0,0,1,1,1h.71a.18.18,0,0,0,.2-.2v-.27a.18.18,0,0,0-.2-.2l-.41.3h-.1l-.78-.71ZM4,44.88l.2.1h.1c.14,0,.21-.06.21-.2l-.21-.1h-.1C4.06,44.7,4,44.77,4,44.88Zm.1,3.18v.2h.3v-.2Zm.2-12.44-.1.21v.4H4.5v-.4A.19.19,0,0,0,4.29,35.62ZM4.19,47l.2.1H4.5v-.3H4.39C4.26,46.8,4.19,46.87,4.19,47Zm.2-5.68v.2H4.7a.18.18,0,0,0-.2-.2Zm.11,7.17v.1c0,.13.08.2.2.2h.37a.18.18,0,0,0,.2-.2v-.1c0-.14-.06-.21-.2-.21H4.7C4.56,48.29,4.5,48.35,4.5,48.47ZM5,45.39l-.1.2.3.21.1-.21Zm0,7v.1h.2v-.3C5,52.17,5,52.24,5,52.35Zm.1-5.78v.21h.1v-.21Zm.2,8.86v.2h.21A.18.18,0,0,0,5.27,55.43ZM5.37,54v.21h.31V54Zm.21-6.66c0,.39.17.58.5.58l.11-.2a.86.86,0,0,1-.31-.68Q5.75,47.08,5.58,47.38Zm1.28,7.95v.3a.18.18,0,0,0,.2-.2v-.1ZM7,42.79v.1h.1a.18.18,0,0,0,.21-.2v-.11h-.1Q7,42.63,7,42.79Zm0,7v.1h.41v-.27h-.2C7,49.58,7,49.64,7,49.75Zm.92-2.87v.2a.18.18,0,0,0,.2-.2ZM8,49.65v.1h.3v-.1Zm.3-6.86v.1a.53.53,0,0,1,.27.1c.14-.16.2-.26.2-.3l-.2-.11H8.48C8.35,42.61,8.28,42.68,8.28,42.79Zm0,.91v.2q0,.14.27.27l.1-.2V43.7c0-.14-.05-.2-.17-.2S8.28,43.59,8.28,43.7Zm0,1c0,.41.12.61.37.61v.1a1.09,1.09,0,0,1-.17.57l.17.11L9,45.69v-.3H8.75v-.81c0-.14-.06-.2-.2-.2S8.37,44.48,8.28,44.68Zm.1-3v.37h.27c.14,0,.21-.06.21-.17l-.31-.2Zm0,5.07v.3l.27.41v.77h.41l-.1.51c.47-.18.71-.32.71-.41s-.27-.64-.81-1.18v-.1c0-.07,0-.1.1-.1a.76.76,0,0,1-.1-.31Zm.1,2.5v.3c.12,0,.17-.07.17-.2v-.1Zm.27,2.36a1,1,0,0,1-.27.51v.41q.45.73.78.81a1.51,1.51,0,0,0,.3-.92c-.27,0-.4-.06-.4-.2v-.51A.86.86,0,0,0,8.75,51.64Zm-.2-.57v.1h.2v-.3C8.62,50.89,8.55,51,8.55,51.07Zm0,3.48c0,.13.09.2.2.2l.11-.2v-.2H8.75C8.62,54.37,8.55,54.44,8.55,54.55Zm.1-4.8c0,.14.09.2.21.2l.1-.2v-.17h-.1C8.72,49.58,8.65,49.64,8.65,49.75Zm.1-3.48v.3c.12,0,.22-.1.31-.3Zm.31-5.17-.1.2v.1h.3v-.1A.18.18,0,0,0,9.06,41.1Zm.3-21.43V20c0,.14.09.21.2.21h.11l-.11-.51Zm.1,10v.1c0,.09.1.19.31.31l.5-.11v-.3a.18.18,0,0,0-.2-.2h-.4C9.53,29.46,9.46,29.53,9.46,29.64Zm0,10.85.21.1v-.3C9.53,40.31,9.46,40.38,9.46,40.49Zm.31-19.23v.1H10v-.1Zm.1,1.62a.19.19,0,0,0,.2.17v-.17Zm2.57,10.55-.58-.11c-1.19,0-1.79.27-1.79.82v8.14l-.1.61a1,1,0,0,1,.1.51v.5A7.27,7.27,0,0,1,10,45c0,.55.56.82,1.69.82a2.59,2.59,0,0,0,.68-.11c1.19.07,2.19.11,3,.11h2.1a4.86,4.86,0,0,0,.88-.11l.91.17c.41,0,.8-.32,1.18-1l-.3-1.08c.07-.7.1-1.24.1-1.62V40.9a1.33,1.33,0,0,1,.41-1v-.41h-.21v.2h-.2v-.1c0-.4,0-1-.1-1.79a5.67,5.67,0,0,0,.2-1.12,11.45,11.45,0,0,0-1.48-2.09q0-.4-2.1-1.29c-.79.07-1.39.11-1.79.11-.65-.12-1-.35-1-.71h-.31A2.34,2.34,0,0,1,12.44,33.43ZM10,50.05v.31h.41v-.31a.18.18,0,0,0-.21-.2C10,49.87,10,49.94,10,50.05Zm.1-37.75v10c0,.48.5.71,1.49.71h2.87c1.53,0,2.3.33,2.3,1l.3.21h.41c.14,0,.2-.07.2-.21v-.91c0-.41.43-.83,1.29-1.28A6.56,6.56,0,0,1,20,20.18a1.73,1.73,0,0,0,.2-.81,5.6,5.6,0,0,0-.1-1.39,16.23,16.23,0,0,0,.1-1.79v-2.5l.1-1.19c-.09-.08-.38-.32-.88-.7l-1.21.1H16.93a2.74,2.74,0,0,1-2.3-1.29l-.87.2-1.32-.2c-.23,0-.62.34-1.19,1C10.47,11.94,10.07,12.17,10.07,12.3Zm0,36v.31h.1v-.31Zm.1-24.8h.48a.19.19,0,0,0-.21-.21h-.06C10.24,23.28,10.17,23.34,10.17,23.46Zm.48,1v.1h.2v-.3C10.71,24.29,10.65,24.36,10.65,24.47Zm.2,27.17v.21c0,.13.09.2.2.2a.18.18,0,0,0,.2-.2c0-.14-.06-.21-.2-.21Zm0,2.71v.3h.2a.86.86,0,0,1,.1-.3Zm.71-2.2v.2h.2v-.2Zm.4-24.5v.2h.11a.18.18,0,0,0,.2-.2Zm.31,25.72a.15.15,0,0,0,.17.17c.13,0,.2-.06.2-.17a.18.18,0,0,0-.2-.21A.19.19,0,0,0,12.27,53.37Zm.07-1.22v.2h.1v-.2Zm.81.1v.1h.2a.69.69,0,0,1,.1-.3h-.1C13.21,52.07,13.15,52.14,13.15,52.25Zm.2-22.61c.05,1.26.21,1.89.51,1.89a3.72,3.72,0,0,0,.2-.88v-.91l-.1-.51h-.31C13.47,29.23,13.37,29.37,13.35,29.64Zm1.08,23.79L14,53.37h-.1c-.14,0-.21.05-.21.17q.51.54.51.81h.58v-.1l-.31-.41v-.1c.2,0,.31-.16.31-.48h-.11C14.5,53.26,14.43,53.32,14.43,53.43Zm-.78,1v.2h.21v-.2Zm.11-1.59h.3v-.2H14C13.82,52.68,13.76,52.75,13.76,52.86ZM15.34,7.33v.21c0,.09.11.19.31.3a.18.18,0,0,0,.2-.2Zm1.09,44.82c0,.13.09.2.2.2h.1v-.2Zm.1,3.48v.1c0,.14.09.21.2.21h.1c.09,0,.19-.11.31-.31a.58.58,0,0,1-.11-.3h-.2Q16.7,55.33,16.53,55.63Zm.4-26.8V29h.21A.18.18,0,0,0,16.93,28.83Zm.41,22.81v.21c0,.13.09.2.2.2h.2c.39-.23.58-.4.58-.51a1.84,1.84,0,0,0-.58-.17C17.47,51.46,17.34,51.55,17.34,51.64Zm.2-50.19-.1.21.1.57c.36,0,.59-.12.68-.37A1.24,1.24,0,0,1,17.54,1.45Zm.78,48.13v.17h.3v-.17Zm.3-1.52v.2c0,.14.09.21.21.21l.1-.21v-.2ZM20.21,35v.41c0,.14.09.2.2.2s.21-.06.21-.2v-.2a.19.19,0,0,0-.21-.21Zm.31,17.65V53h.1a.18.18,0,0,0,.2-.2l-.2-.1Zm.4-14.16v.4a.18.18,0,0,0,.2-.2v-.41C21,38.32,20.92,38.38,20.92,38.5Zm.41-23.09-.21.27v.1c0,.14.09.21.21.21a.18.18,0,0,0,.2-.21v-.2C21.53,15.47,21.46,15.41,21.33,15.41Zm-.1,1v.41h.1a.93.93,0,0,0,.3-.1l.58.1v-.31q-.48,0-.48-.3h-.1A.85.85,0,0,1,21.23,16.39Zm.3-1.59.2.1.07-.2v-.1h-.07C21.6,14.62,21.53,14.69,21.53,14.8Zm0,22.72v.2h.2v-.41A.2.2,0,0,0,21.53,37.52Zm.1,1.28v.1c0,.14.08.2.17.2l.1-.5h-.1A.19.19,0,0,0,21.63,38.8ZM21.8,37v.2h.1V37Zm.1-.2H22a4,4,0,0,1,.92-.68v-.51c0-.13.08-.2.2-.2l.4.51c.12,0,.17-.07.17-.21-.11-.6-.27-.91-.47-.91H23A4,4,0,0,0,21.9,36.81Zm.41-4.09.2.1h.2v-.27h-.2C22.37,32.55,22.31,32.6,22.31,32.72Zm.1-17.82V15h.2V14.9Zm.3,21.8v.21h.1V36.7Zm0,13a3.81,3.81,0,0,0,1.39.41c.47-.12.71-.25.71-.41a4.46,4.46,0,0,0-1.69-.57A.51.51,0,0,0,22.71,49.75Zm.21-34.27c0,.07,0,.1-.11.1a.85.85,0,0,1,.11.3h.2v-.2A.18.18,0,0,0,22.92,15.48ZM23,37.31v.21h.1v-.21Zm.1-21.12v.71h.2l.1-.51V16h-.1C23.19,16,23.12,16.08,23.12,16.19Zm0,19.94v.27h.2v-.27Zm.1.78v.3h.1c.14,0,.24-.2.3-.61h-.1C23.41,36.6,23.31,36.7,23.22,36.91Zm.57-2.57v.17H24C24,34.39,23.93,34.34,23.79,34.34Zm.21-2.5v.5c0,.14.09.21.2.21s.2-.1.2-.31-.19-.4-.3-.4Zm.1,3.07-.1.21v.6h.1a.18.18,0,0,0,.2-.2v-.4A.18.18,0,0,0,24.1,34.91Zm0-6.45v.2h.2v-.2Zm.1,5-.1.2V34h.1a1.17,1.17,0,0,1,.2-.5Zm-.1,21.22h.3v-.2h-.1C24.17,54.47,24.1,54.54,24.1,54.65Zm.2-23.42v.2h.2V31C24.37,31.05,24.3,31.12,24.3,31.23Zm.31,14.57L24.5,46v.11c0,.13.09.2.21.2H25v-.41Zm.1,5.57v.27c0,.14.09.21.2.21s.19-.11.3-.31v-.37h-.3C24.77,51.19,24.71,51.26,24.71,51.37ZM24.81,2v.1H25v-.3C24.88,1.78,24.81,1.85,24.81,2Zm.1,33.16-.1.5v.1c0,.14.09.21.2.21h.1a4.55,4.55,0,0,1-.1-.81Zm.2-14.54v.31h.41v-.1a.19.19,0,0,0-.21-.21Zm0,10.45v.5h.2l.11-.5Zm.58-1.19-.27,1.08a3.25,3.25,0,0,0,.57-.67v-.41Zm-.17,2-.1.5.27.21v-.71Zm-.1,18.62v.3h.16c.12,0,.22-.1.31-.3v-.2h-.31A.18.18,0,0,0,25.42,50.46Zm.27-12.07v.21H26v-.21Zm.6-6.25-.1.2v.27c0,.14.09.21.21.21a.18.18,0,0,0,.2-.21v-.16C26.6,32.33,26.5,32.23,26.29,32.14Zm.21-3.48v.17h.1v-.17Zm.3-2.5-.2.3v.31l.51.06c.27-.08.4-.17.4-.27v-.1C27.51,26.31,27.28,26.2,26.8,26.16Zm.78,10c0,.18-.06.27-.17.27s-.07-.17-.2-.17H26.9c-.13,0-.2.06-.2.17a1.76,1.76,0,0,0,.81.3.65.65,0,0,1,.27-.1v-.47Zm-.37-.51v.21a.64.64,0,0,1,.37.2.18.18,0,0,0,.2-.2v-.41a.18.18,0,0,0-.2-.2C27.49,35.22,27.37,35.35,27.21,35.62Zm.2-28.29c0,.14.06.21.17.21V7.33Zm0,13.25v.21h.1v-.21Zm0,2.3v.17h.17v-.17Zm0,11.26v.2h.1c.11,0,.17-.07.17-.2Zm0,11.35v.2h.1v-.2Zm.37-25.72-.27.41v.3h.27a.93.93,0,0,1,.2-.61Zm-.2-14.33v.2h.2v-.2Zm.71,26.8-.51-.1h-.1v.1c.16.39.53.58,1.12.58a.7.7,0,0,1,.4-.58c.09.25.18.37.27.37h.31v-.37L29.4,32a.69.69,0,0,1-.3.1.18.18,0,0,0-.2-.2h-.31Q28.46,31.94,28.29,32.24Zm-.61,14.23v.2h.1v-.2Zm.1-23.32c.11.27.22.41.31.41.13-.16.2-.26.2-.31v-.2H28Zm.1-13.35v.1c.14,0,.21-.05.21-.17v-.1C28,9.65,27.88,9.71,27.88,9.8Zm0,1.72v.17c0,.14.09.21.21.21v-.38Zm0,7.58a1.29,1.29,0,0,0,.92.47c0-.2.25-.56.77-1.08,0-.09-.09-.19-.27-.31C28.36,18.45,27.88,18.76,27.88,19.1Zm1,14.12v.21H29v-.21Zm.2-1.59v.11h.2v-.11Zm0,14.54v.4h.2v-.4Zm.1-36.54v.1h.68a.18.18,0,0,0-.21-.2Zm0,6.15v.31h.1v-.31Zm.1-5.27v.2c0,.14.06.21.17.21s.2-.07.2-.21v-.4h-.2A.19.19,0,0,0,29.3,10.51Zm.88,8.08c0,.13.09.2.2.2v-.2Z"/><path class="cls-1" d="M59,.24c1.6.51,2.4,1.18,2.4,2,.36,0,.76.29,1.18.88.34,0,1,.66,1.9,2a10.12,10.12,0,0,1,.2,2.2v20a7.4,7.4,0,0,1-.2,1.29,22,22,0,0,1,.2,2.7V49.14a3,3,0,0,1-1.89,3c-1,1.42-1.74,2.17-2.3,2.26a1.76,1.76,0,0,1-1.49.82h-9l.11-.51c-.09,0-.2-.1-.31-.31V54c0-.13.09-.2.2-.2a.67.67,0,0,1,.21.41h.37v-.11c0-.6-.23-.91-.68-.91l-.1-.88-.5.07a2.73,2.73,0,0,0-.41-.57.78.78,0,0,0,.1-.41h-.2v.41c0,.33-.09.53-.27.57,0-.11-.07-.17-.2-.17h-.11c-.13,0-.2.06-.2.17v.2h.1l.51-.1a1.38,1.38,0,0,1,.07.31l.5-.11v.11c-.38.27-.57.43-.57.5s.07,0,.07.1l-.17.11a.76.76,0,0,1-.1-.31h-.21c0,.23-.4.4-1.21.51v.1c0,.13.09.2.2.2a.76.76,0,0,1,.41-.1c.18.32.31.47.4.47s.14-.21.41-.37a.71.71,0,0,1,.2.37h.27c.14,0,.2,0,.2-.16l-.2-.11a.69.69,0,0,0,.1-.3h.31l-.11.47v.1a.76.76,0,0,1,.51.21l-.1.2V55h.2v.21H40.69a3.85,3.85,0,0,1-2.9-1.8A8.91,8.91,0,0,1,36,51.64a3.46,3.46,0,0,1-1.49-2.7v-.47a9.16,9.16,0,0,1,.1-1.8c-.07-.76-.1-1.49-.1-2.19V42c0-.59,0-1.25.1-2a3.49,3.49,0,0,1-.1-1,3,3,0,0,1,.1-.81c-.07-.74-.1-1.41-.1-2V33.43a5.59,5.59,0,0,1,1-2.4v-.21h.61v-.2a1,1,0,0,1-.61-.3l-.37.4a.89.89,0,0,1-.61-.91V28.22a4.72,4.72,0,0,1,.1-1.59c-.07-.92-.1-1.72-.1-2.4V7.6c0-2,.3-3,.91-3,.14,0,.46-.5,1-1.42.61-.59,1-.88,1.18-.88a.76.76,0,0,0,.31.1l-.1-.2c.13,0,.37-.3.71-.91a.93.93,0,0,0,.3-.1l-.1-.17A3.09,3.09,0,0,1,40.49.34h2.77l.41.71c0-.21.23-.44.71-.71h.4v.2a1.45,1.45,0,0,1-.2.3V1l.47.1.1-.21a.82.82,0,0,1-.1-.4l.21-.1h.3a.82.82,0,0,1,.3.2,1.37,1.37,0,0,0,.31-.2h.4c.48.13.74.2.78.2s.09-.2.2-.2h9.57C57.66.34,58.29.3,59,.24ZM34.71,14.47v.4a.69.69,0,0,1,.3.1l.11-.2v-.1c0-.14-.07-.2-.21-.2Zm.78-7,.2.1h.2V7.1h-.1C35.7,7.1,35.6,7.23,35.49,7.5Zm.3-3.07v.2h.1v-.2ZM36,31.13c.2.85.37,1.28.5,1.28h.21a.18.18,0,0,0,.2-.2c-.16-.79-.33-1.18-.51-1.18h-.2ZM36.3,4l-.1.2v.11c0,.15.17.26.51.3C36.52,4.22,36.39,4,36.3,4Zm-.1,2.5.1.48h.1c.09,0,.19-.09.31-.27V6.52a.18.18,0,0,0-.21-.2h-.1C36.27,6.34,36.2,6.41,36.2,6.52Zm.51-1.21v.3c0,.11.13.25.4.41h.2c.12,0,.17-.07.17-.21-.22,0-.45-.17-.67-.5Zm0,30.08h.2v-.17C36.77,35.22,36.71,35.27,36.71,35.39Zm.4-31.57v.4h.1l.17-.1a1.22,1.22,0,0,1-.07-.3Zm0,24.4v.1c0,.12.12.22.37.31a.69.69,0,0,0,.21-.41q-.11-.3-.21-.3C37.23,28,37.11,28.13,37.11,28.22Zm0,2.91.58.67h.1a.18.18,0,0,0,.2-.2v-.17a.93.93,0,0,1-.3-.51h-.38C37.18,31,37.11,31,37.11,31.13Zm.1-26.2q0,.13.27.27h.1c.07,0,.17-.09.31-.27a.69.69,0,0,1-.1-.3C37.4,4.68,37.21,4.78,37.21,4.93ZM38,3.11l-.2.3v.1a1,1,0,0,1,.81.31.18.18,0,0,0,.2-.2V3.41a.18.18,0,0,0-.2-.2.78.78,0,0,1-.41.1A.18.18,0,0,0,38,3.11Zm-.1,32.21-.1.47.2.1c.16,0,.26-.17.3-.5l-.2-.07Zm.3-24.64v.41h.31v-.41Zm.41-8.45-.1.2v.1h.3v-.1A.18.18,0,0,0,38.6,2.23Zm.3,9.06v.3a.18.18,0,0,0,.2-.2Zm.78-9v.2c0,.14.09.21.2.21h.31a.18.18,0,0,0,.2-.21l-.31-.2Zm.4-1.18v.07h.71V1h-.5C40.15,1,40.08,1,40.08,1.15Zm1.19,38v.17h.1V39.1Zm1.11-10.88c0,.14-.13.34-.4.61l.3.2a2.11,2.11,0,0,1,.41-.61.18.18,0,0,0-.21-.2Zm-.2,1.59V30h.1v-.2Zm.3-25.38v.5c-.13,0-.2.06-.2.17a3.18,3.18,0,0,1,.78.71l.2-.5c-.22,0-.35-.26-.37-.78L43.16,4v-.2C42.71,4.16,42.48,4.36,42.48,4.43Zm-.1,13.14v.11a.65.65,0,0,1,.21.4h.3c.07,0,.26-.23.57-.71l-.1-.61C43.12,16.76,42.79,17,42.38,17.57Zm0,1v.21h.21v-.41C42.45,18.37,42.38,18.44,42.38,18.55Zm0,12.37V31c0,.13.09.2.21.2l.1-.2v-.31h-.1C42.45,30.74,42.38,30.81,42.38,30.92Zm0,.88v.41h.1a.18.18,0,0,0,.21-.2V31.8Zm.21-1.59.2.11.47-.11v-.1a.18.18,0,0,0-.2-.2h-.17Q42.73,29.91,42.59,30.21ZM42.69,6v.2a.18.18,0,0,0,.2-.2V5.81C42.75,5.84,42.69,5.9,42.69,6Zm.3,9v.1l.17.31V16h.1c.14,0,.2-.07.2-.21v-.2c0-.34-.1-.54-.3-.61Zm.37-13.65c0,.13.09.2.21.2h.1v-.2Zm.21.71-.11.2c0,.14.09.2.21.2l.1-.2A.18.18,0,0,0,43.57,2Zm.6,1.89c0,.2-.17.41-.5.61l-.21.3V5.1h.21l.3-.17.2.07.11-.17-.11-.5a.19.19,0,0,0,.21-.21A.18.18,0,0,0,44.17,3.92Zm0-.81v.1l.11.51h.1a.18.18,0,0,0,.2-.21v-.2a.18.18,0,0,0-.2-.2Zm.11,46.13v.1h.2V49C44.34,49.06,44.28,49.13,44.28,49.24Zm.77-37.75.1,1.18v16a16.42,16.42,0,0,0-.47,2.19,6.68,6.68,0,0,1,.47,2v9.76a3.1,3.1,0,0,1-.2,1.29c.23.61.56.91,1,.91a6.24,6.24,0,0,0,1.28-.1c.88.07,1.61.1,2.2.1s1.45,0,2.4-.1a7.27,7.27,0,0,0,1.08.1c1.06,0,1.59-.2,1.59-.61V22.34l.1-.57a1,1,0,0,1-.1-.51v-3c.11-.29.74-.62,1.89-1a.73.73,0,0,1,.2-.41.18.18,0,0,0-.2-.2c-.14.3-.6.53-1.39.71a.8.8,0,0,0-.2.51h-.3V11.59a.62.62,0,0,0-.68-.71H47.35a11.4,11.4,0,0,1-1.38-.1A1.54,1.54,0,0,0,45.05,11.49ZM45.46,46c.07.21.13.31.2.31l.51-.31a.79.79,0,0,0,.3.11v-.41C45.8,45.73,45.46,45.83,45.46,46Zm2,7.07-.1.2.2.1h.11v-.1A.18.18,0,0,0,47.45,53Zm.81,1.49v.3h.21a.18.18,0,0,0,.2-.2v-.1ZM49,49.24v.21c0,.13.09.2.2.2h.11v-.41Zm.41-45.73c0,.14.09.21.2.21.13-.16.2-.26.2-.31l-.2-.1C49.51,3.33,49.45,3.4,49.45,3.51ZM50,47.45c0,.14.09.2.21.2l.1-.2Zm0,1.49v.2h.21v-.2Zm0,2.2a.69.69,0,0,1,.1.3h.21a.18.18,0,0,0,.2-.2v-.31h-.3C50,51,50,51,50,51.14ZM50.46,53a.69.69,0,0,1,.1.3h.37v-.2q0-.14-.3-.3A.19.19,0,0,0,50.46,53Zm.37-2.1-.1.21v.2h.2A.82.82,0,0,1,51,51Zm.31-.88v.21h.1v-.21Zm.5-1-.1.2.1.71c.14,0,.21-.06.21-.2v-.51A.18.18,0,0,0,51.64,49Zm0,1.89v.31h.21v-.31Zm1.69,3.59-.1.2V55h.1a.18.18,0,0,0,.21-.2v-.1C53.54,54.58,53.47,54.52,53.33,54.52Zm.61-46.81v.2H54v-.2Zm.41,45.12v.3h.17v-.3Zm.27-1.8v.21h.2V51Zm0,1.12v.27h.3v-.27Zm.5-43V9.6c0,.13.09.2.21.2a1.15,1.15,0,0,0,.3-.71l-.2-.1h-.1C55.19,9,55.12,9.08,55.12,9.19Zm0,12.68V22h.21C55.33,21.92,55.26,21.87,55.12,21.87Zm1.19-3.79h.2v-.2C56.38,17.9,56.31,18,56.31,18.08Zm1-9.87-.1.21v.1h.41C57.63,8.4,57.52,8.3,57.32,8.21Zm.41,4.67a.73.73,0,0,1,.3.1l.1-.2-.2-.11C57.79,12.7,57.73,12.76,57.73,12.88Zm1.08-8.76v.21h.3a.18.18,0,0,0-.2-.21ZM59,5.51c0,.13.17.2.51.2a3.36,3.36,0,0,1,.4-.88v-.2a.18.18,0,0,0-.2-.2h-.2Q59.28,4.43,59,5.51Zm.2,3.58a1.17,1.17,0,0,1,.21.51c-.27.09-.41.19-.41.3l.2.1h.11l.2-.1a.73.73,0,0,1,.2.41H60a1.47,1.47,0,0,1,.37-.91V9.19a.18.18,0,0,0-.21-.2h-.27c0,.47-.14.71-.3.71,0-.07,0-.1-.1-.1a1.73,1.73,0,0,0,.2-.81.6.6,0,0,1-.1-.27A.52.52,0,0,0,59.21,9.09Zm.51,1.69-.2.31v.1c0,.13.09.2.2.2h.37a.18.18,0,0,0,.21-.2v-.1C60.23,10.88,60,10.78,59.72,10.78Zm-.1-7.16v.2h.2v-.2Zm.3,9.16a.58.58,0,0,0,.11.3,4.8,4.8,0,0,0-.11.81l.17.1h.1c.36,0,.57-.1.61-.3v-.31c-.2,0-.37-.13-.5-.4a.66.66,0,0,0,.4-.68v-.1h-.3Zm.68-9.67.1.51v.1l-.1.2-.2-.1c-.09,0-.19.13-.31.4l.31.21h.1l.4-.31H61c.13,0,.2.09.2.21l-.1.87.2.11.51-.11v.11a5.37,5.37,0,0,0-.11.81,3.51,3.51,0,0,1,.21.88q0,.3-.51.3v.51a1.59,1.59,0,0,0,.3-.21c.14,0,.21.09.21.21v.1c0,.09-.17.22-.51.4l.1.68c-.11,0-.25.14-.4.41a.09.09,0,0,1,.1.1l.2-.1c.14,0,.2.09.2.2v.1a.18.18,0,0,1-.2.2c-.13,0-.2-.1-.2-.3H61v.1c0,.25.16.48.5.71l-.2.27.1.2a.76.76,0,0,0-.1.31q.13,0,.3.3v.1l-.4,1.08V13l.3-.2h.2v.1a.86.86,0,0,0-.1.3h.48a1,1,0,0,1,.3-.51V12h-.2c0,.27-.06.4-.17.4h-.2v-.2a3,3,0,0,0,.57-.81v-2c0-.21,0-.31-.1-.31l.1-.47v-5A.67.67,0,0,1,62,3.41h-.2q0,.34-.51.51c-.09-.59-.23-.88-.41-.88h-.1Zm-.1,26.53v.27c0,.14.09.2.2.2l.1-.2v-.47h-.1C60.57,29.46,60.5,29.53,60.5,29.64Zm.1-28v.21c.14,0,.2-.07.2-.21Zm0,26.6v.2h.1v-.2Zm.2-1.79a8.21,8.21,0,0,0,.31,1.49v.3h.3l-.1-.4.1-.68a1.47,1.47,0,0,1-.2-.81H61Zm.21,2.2v.1c0,.13.08.2.2.2l.1-.2v-.1Zm.1-15.35v.51a.18.18,0,0,0,.2-.2v-.31Zm.3,2.2a2.81,2.81,0,0,1,.41,1.28l-.11.51.21.41-.1.4a3.82,3.82,0,0,1,.47,1.29h.1V18.08c0-.2,0-.3-.1-.3l.1-.51v-2q-.3,0-.3-.21.16,0,.3-.3V14.4h-.1C61.7,14.71,61.41,15.07,61.41,15.48Zm.3,6.18a5,5,0,0,1,.11.88V23c-.27.25-.41,1-.41,2.2l.1.5c.27,0,.41-.28.41-.71l-.1-.71.2-.37a5,5,0,0,1-.1-.81.91.91,0,0,1,.47-.2v-.31l-.2-.3v-.47l.2-.31v-.71C62.14,20.75,61.92,21.06,61.71,21.66Zm-.2-7.77v.2c0,.14.17.24.51.31a2,2,0,0,1,.37-.61v-.3A1.77,1.77,0,0,1,61.51,13.89Zm.1-9.36h.31v.1c0,.14-.07.2-.21.2h-.1Zm.21,39.24a.74.74,0,0,1-.11.3l.38.2.2-.3a1.47,1.47,0,0,0-.27-.2Zm.2-16a1.12,1.12,0,0,0-.2.6v.1l.1.51H62c.09,0,.21-.13.37-.4v-.51C62.39,28,62.27,27.93,62,27.82Zm-.1-17h.17v.1h-.17Zm0,9V20c0,.12,0,.17.17.17h.3v-.57h-.1A.71.71,0,0,1,61.92,19.77Zm.27,4.56v.61c0,.14.09.21.2.21v-1C62.26,24.15,62.19,24.22,62.19,24.33Zm0,1.22v.37c0,.14.09.21.2.21v-.78C62.26,25.37,62.19,25.44,62.19,25.55Z"/><path class="cls-1" d="M70.71.24c.9.06,1.56.1,2,.1h3a14,14,0,0,0,1.42-.1,2.33,2.33,0,0,1,2.27,1.28c0,.47.11.71.2.71l-.1.51V20.65c-.07.18-.36.42-.88.71A5.7,5.7,0,0,0,80.47,23l1-.2c1.2.06,2.2.1,3,.1h1.29a.85.85,0,0,0,.4-.1.86.86,0,0,0,.41.1h.27c1.26,0,1.89-.24,1.89-.71a.71.71,0,0,0,.1-.37v-1.9a5.1,5.1,0,0,1,.3-1.52,3.23,3.23,0,0,1-.3-1.38V10.88h.1c.27.12.41.22.41.31v.3c-.21,0-.31.07-.31.2l.1.51h.31v-.51l.3-.4-.1-.51c.34-.07.51-.22.51-.47-.34-.07-.51-.2-.51-.41a2.46,2.46,0,0,1,.61-1.59h.2l.17.11q0-.21.21-.21h.1c.13,0,.2.1.2.31h.3a.86.86,0,0,1,.1-.41l.21.1a1.25,1.25,0,0,1,.61-.2h.47l.2.1a4.51,4.51,0,0,0-.1.78,4.22,4.22,0,0,0,.81,2v.31a7.74,7.74,0,0,0,1.49,1.21,4.49,4.49,0,0,1,1.38,1.79c.41,0,1.14.9,2.2,2.67A7,7,0,0,1,99,19V38.39l-.2.31v.1l.2.3V53.33c0,1.26-.39,1.9-1.18,1.9H96.7v-.41h-.38v.41H91.73a.76.76,0,0,1-.41-.11.75.75,0,0,1-.4.11h-.21c-1.19,0-1.79-.4-1.79-1.19-.07,0-.1-.13-.1-.4V34.51l.1-1.19c-.65-.27-1-.47-1-.6a1.25,1.25,0,0,1-.2-.51h-.1c-.14,0-.24.27-.31.81h-.1a.18.18,0,0,1-.2-.2h.1c-.09-.27-.19-.41-.3-.41h-.78c0,.41-.07.61-.2.61H80.27a1.12,1.12,0,0,0-1,.47,2.64,2.64,0,0,1,.2,1.12v16c0,.83,0,1.87.1,3.11,0,.79-.73,1.28-2.2,1.49H70.71c-1.27-.21-1.9-.77-1.9-1.69.07-1.45.1-2.47.1-3.08q0-2.34-.1-7.3c.07-.79.1-1.39.1-1.79a9.54,9.54,0,0,1-.1-1.39c.07-.58.1-.91.1-1a12.71,12.71,0,0,1-.1-1.72l.1-.17a1,1,0,0,1-.1-.41v-.6a1.09,1.09,0,0,1,.1-.51l-.1-.58v-.4a14.37,14.37,0,0,1,.1-1.79l-.1-.92c0-.33,0-.9.1-1.69-.06-1.19-.1-2-.1-2.39.07-.82.1-1.24.1-1.29a12,12,0,0,1-.1-1.79h.1l-.1-.2c0-.57,0-1.4.1-2.5-.06-.86-.1-1.55-.1-2.07h.1a.09.09,0,0,0-.1-.1c.07-1,.1-1.74.1-2.19v-.82a21.47,21.47,0,0,0-.1-2.87c.07-1.15.1-2.31.1-3.48v-1q0-2.71-.1-7.57C69.24.8,69.87.24,70.71.24ZM86.05,26.63v2.71h.2l.1-1.22v-1l-.1-.51Zm.3,4.09.21.1h.1c.11,0,.17-.06.17-.2l-.17-.1h-.1C86.42,30.54,86.35,30.61,86.35,30.72ZM91.12.24q1,0,1.89,1.38A1.36,1.36,0,0,1,92.13,3c-.2,1.31-.44,2-.71,2a7.7,7.7,0,0,0-.81-.17h-.27a1.21,1.21,0,0,1-.4.68v.61h.2c.16,0,.29-.27.4-.81h.07l.1.2v.3q0,.21-.27.21v.4l.1.47h.07l.31-.16.91.57c0-.25.46-.47,1.38-.68v-.2a.18.18,0,0,0-.2-.2H92.5l-.16.1-.11-.2c0-.68.47-1.14,1.39-1.39.41-.22.61-.43.61-.61a2,2,0,0,0-.2-.61l.1-.57c-.27,0-.41-.34-.41-1a1.68,1.68,0,0,1,.78-.31h.61L95,1.15l.2-.1h.1c.14,0,.24.32.3,1h.11c.06,0,.23-.2.5-.61a1.47,1.47,0,0,1-.2-.27,1.83,1.83,0,0,0,.3-.2c.12,0,.27.29.48.88l.91.3v.2a1,1,0,0,0-.51.31l-.61-.81a.65.65,0,0,1-.27.1v.2a1.15,1.15,0,0,0,.07.4,1.25,1.25,0,0,0-.07.41q.14,0,.27.27c-.13,0-.2.09-.2.2l.2.1h.21c.11,0,.21-.13.3-.4a2.11,2.11,0,0,1,1.39.51c.34.09.5.19.5.3v.41h-.6v.5c.33,0,.5.06.5.17a3.21,3.21,0,0,1,.1.81v.71h-.2c-.07,0-.1,0-.1-.1a3.7,3.7,0,0,1-1.28.2v-.1c0-.13.16-.2.5-.2V6A1.32,1.32,0,0,1,97,5.71a.09.09,0,0,0-.1.1l-.51-.1h-.47c-.14,0-.2.09-.2.2V6c.2,0,.3.06.3.2a1.83,1.83,0,0,1-.2.3v.1h.77v-.1l-.27-.4.27-.21c.09,0,.3.28.61.82l-.2.1a1.07,1.07,0,0,1-.41-.1L94.8,7.3h-.57V6.89h-.31V7s.07.14.21.3l-.21.1h-.2L93,7.3c0,.2-.46.34-1.38.41V7.4l-.81.1-.21-.1h-.27c0-.36-.3-.69-.91-1a.76.76,0,0,1-.41.1.18.18,0,0,1-.2-.2c0-.07,0-.1.1-.1l-.1-.51v-.1l.51-.41V5l-.51-.57V2A1.51,1.51,0,0,1,90.54.34Zm-2.3,8.28h.3c0,.25.09.37.21.37-.07.61-.17.91-.31.91a.18.18,0,0,1-.2-.2Zm.2-2.3.21.1h.1V6h-.1C89.09,6,89,6.11,89,6.22Zm.51.88h.3c0,.36-.1.56-.3.61a.18.18,0,0,1-.2-.21A.68.68,0,0,0,89.53,7.1Zm.1-2.27a.71.71,0,0,1,.1.37h.21V4.83Zm.2,7.57c.07.34.11.53.11.58h-.21v.2H90c.34-.79.56-1.18.67-1.18l.21.1v-.3c0-.16-.13-.26-.38-.31A1,1,0,0,0,89.83,12.4Zm.21.88-.1.51h.5l.1-.41-.2-.1Zm.78.1a1.36,1.36,0,0,1-.48.81v.21a.67.67,0,0,1,.27.07,1,1,0,0,0,.91-.58h.11l.2.1.1-.2v-.1a.18.18,0,0,0-.2-.2.89.89,0,0,1-.41.1.18.18,0,0,0-.2-.21Zm1-7.47a1.37,1.37,0,0,0,.2.31c0,.09-.13.22-.4.4h-.21c-.31-.18-.48-.31-.5-.4l.2-.1h.51C91.65,6,91.72,5.91,91.83,5.91Zm-.51-1.79v.21h.31V4.12Zm.31,6.29v.1a.19.19,0,0,0,.2.17v-.27Zm.6-8.48a2.85,2.85,0,0,0-.5.81l.2.1H92c.11,0,.25-.31.41-.91Zm-.4,10.85.3.2v-.41H92C91.9,12.6,91.83,12.66,91.83,12.78Zm0,40.35v.1c0,.09.1.19.3.31a.65.65,0,0,1,.31-.11l.06.21v.1c-.45.31-.67.51-.67.57v.21h.4l.48-.38h.1l.3.17h.1c.09,0,.2-.09.31-.27v-.4c-.41,0-.61-.31-.61-.92a1.77,1.77,0,0,0,.51-.87l-.21-.11H93q-.2,0-.3.78c-.18,0-.37.2-.58.61Zm.2-.71v.2h.2v-.2Zm.47-39.64-.16.4a3.06,3.06,0,0,1,.57.61c.11,0,.28-.2.51-.61v-.1h-.51Zm.21-2.27v.17h.2v-.17Zm.1,44.31V55H93v-.2ZM93,28v.2h.1V28Zm.1-22.61c0,.13.09.2.21.2v-.2ZM98,6.83h.38c.13,0,.2,0,.2.17l-.31.4V8a5.15,5.15,0,0,0,.21.78h.1c.13,0,.2-.13.2-.37H99v5.27a.78.78,0,0,1-.77.5c-.57,0-1.43-.86-2.61-2.6A4,4,0,0,1,94.33,9.8c-.41,0-.71-.56-.91-1.69a.18.18,0,0,0,.2-.2c.83.09,1.33.16,1.49.2a1.6,1.6,0,0,0,1-.61c.34.41.6.61.78.61,0-.13.09-.2.2-.2h.2v.3c-.27,0-.4.07-.4.21l.51.1h.2a1.43,1.43,0,0,1,.4-.81V7.3l-.2-.3A.18.18,0,0,1,98,6.83ZM93.62,27.14c0,.13.09.2.2.2h.1l.21-.1a.73.73,0,0,1-.1-.3h-.21C93.69,27,93.62,27,93.62,27.14Zm.3-14.64-.1.38L94,13a.18.18,0,0,0,.2-.2.59.59,0,0,1-.1-.28Zm.21,15L95,28h.4a.18.18,0,0,0,.2-.2l-.3-.17a1.22,1.22,0,0,1-.41.06c-.06-.31-.2-.47-.4-.47S94.13,27.43,94.13,27.54ZM94.5,5.61,94.23,6v.2h.27a.18.18,0,0,0,.2-.2V5.81A.18.18,0,0,0,94.5,5.61Zm0,6.79v.17h.2V12.4ZM94.7,25c0,.14.09.21.2.21V25Zm.1,1.59.21.1a.18.18,0,0,0,.2-.2v-.1H95C94.87,26.45,94.8,26.52,94.8,26.63Zm.1-21.7V5a.82.82,0,0,1,.11.31h.3c.14,0,.2-.07.2-.21s-.06-.17-.2-.17ZM95,6.62l-.11.21.21.06h.1c.13,0,.2,0,.2-.16A2.56,2.56,0,0,0,95,6.62ZM95,27v.1h.2V27Zm.1-20.82h.3V6h-.1C95.17,6,95.11,6.11,95.11,6.22Zm.2,19.8v.41h.3a.18.18,0,0,0,.21-.2.19.19,0,0,0-.21-.21Zm.41-21.49.2.1h.2v-.3h-.2C95.78,4.35,95.72,4.42,95.72,4.53Zm0,3.78v.21a1.05,1.05,0,0,1,.5.2l.1-.2V8.21h-.1Zm.4,45.43a.69.69,0,0,1-.1.3.93.93,0,0,1,.2.48.6.6,0,0,1,.27-.11c-.11-.4-.17-.63-.17-.67ZM96.39,27a.92.92,0,0,1-.17.4v.1a.15.15,0,0,0,.17.17l.41-.37a.69.69,0,0,1-.1-.3Zm0-1.59-.07.47h.38v-.47Zm0-21.33v.21h.1l1-.31v-.1s-.1-.15-.31-.3C96.84,4,96.57,4.12,96.39,4.12Zm0,.81V5.1h.2L96.8,5a.53.53,0,0,1-.1-.27h-.11C96.46,4.75,96.39,4.82,96.39,4.93Zm.2,23.39v.31h.11a.18.18,0,0,0,.2-.21v-.1Zm0,23.53V52l.61.77h.21v-.3C97.13,52,96.87,51.85,96.59,51.85ZM97.1.44a6.85,6.85,0,0,1,.71.2v.51c0,.09-.13.21-.4.37H97.1l-.2-.1a1.49,1.49,0,0,0,.2-.68.18.18,0,0,1-.2-.2Zm0,6.66h.31v.2c0,.14-.07.2-.21.2s-.19-.1-.3-.3ZM97,54v.1h.41V54Zm.51-43.43.4.17a.09.09,0,0,1,.1-.1.65.65,0,0,1-.1-.27h-.2C97.57,10.43,97.51,10.5,97.51,10.61Zm.1-6.08v.1h.2v-.1Zm0,.78c0,.13.09.2.2.2h.1v-.2ZM98,2.74h.11a.18.18,0,0,1,.16.2l-.16.1L98,2.84Zm0,1.18h.21v-.2C98.08,3.74,98,3.81,98,3.92ZM98.28,9v.3c.14,0,.21-.06.21-.2V9Zm.11,1.52v.17c.13,0,.2-.06.2-.17Z"/><path class="cls-1" d="M105,0a.88.88,0,0,1,.41.1C106.81,0,108,0,108.83,0h3.62c1.21,0,1.82.54,1.82,1.62V12.3c0,.54,0,1.17.1,1.89s-.61,1.41-1.82,2.13a2.54,2.54,0,0,1-1.29.92v.2a14.91,14.91,0,0,0,2.81,3.31,2.61,2.61,0,0,1,.3.91c-.22,1.49-.63,2.24-1.21,2.24h-.41q-.51,0-.51-2.13v-.41c0-.34-.09-.54-.27-.61a4.06,4.06,0,0,0-.61,2.64c0,.36.77.89,2.3,1.59.48.65.71,2.07.71,4.25a4.24,4.24,0,0,0-.81,1.39,3.53,3.53,0,0,1,.71,2.64v6.55a2,2,0,0,1-1.52,2.2l-.68-.1h-6.76c-1,0-1.52-.67-1.52-2V5A7.75,7.75,0,0,1,104,3.11c-.07-.65-.14-1-.21-1,0-1.35.31-2,.92-2A.73.73,0,0,0,105,0Zm7.64,44.85c1.08,0,1.62.77,1.62,2.3v6.76c0,.56-.4,1-1.22,1.32-1.24-.07-2.14-.11-2.7-.11h-2.23c-.74,0-1.71,0-2.91.11-.94-.19-1.42-.66-1.42-1.42V47.65c0-1.73.27-2.6.81-2.6a1,1,0,0,1,.51-.1h6.66A4.71,4.71,0,0,0,112.65,44.85Zm-2.4-18.35v.2c0,.41.51,1.05,1.52,1.93h.2q.16,0,.27-.51a1.66,1.66,0,0,0-1.79-1.62Z"/></g></g></svg>